<svg width="29" height="29" viewBox="0 0 29 29" fill="none" xmlns="http://www.w3.org/2000/svg">
<path d="M14.5002 1.16003C7.14141 1.16003 1.16016 7.14128 1.16016 14.5C1.16016 21.8588 7.14141 27.84 14.5002 27.84C21.8589 27.84 27.8402 21.8588 27.8402 14.5C27.8402 7.14128 21.8589 1.16003 14.5002 1.16003ZM14.5002 2.32003C21.2313 2.32003 26.6802 7.76886 26.6802 14.5C26.6802 14.5408 26.6779 14.5816 26.6756 14.6224C26.3063 14.5884 25.8781 14.5567 25.3321 14.5363C24.5618 14.5091 23.5898 14.5182 22.4887 14.5725C22.5295 14.2871 22.559 13.9993 22.559 13.7025C22.6156 12.6173 22.2509 11.6023 21.6573 10.7051C21.8 10.2089 21.9677 9.5791 22.0107 8.86542C22.0583 8.0498 21.988 7.14582 21.3333 6.53636L21.1656 6.38003H20.9368C19.3826 6.38003 18.3155 7.03253 17.6652 7.5491C16.725 7.18433 15.667 6.96003 14.5002 6.96003C13.3266 6.96003 12.2595 7.1866 11.2807 7.55136C10.6282 7.03253 9.56336 6.38003 8.00461 6.38003H7.77805L7.61039 6.53636C6.97148 7.12769 6.91258 8.00449 6.95336 8.81558C6.98734 9.52925 7.14594 10.1795 7.28867 10.7006C6.68375 11.6136 6.32352 12.6558 6.32352 13.6889C6.32352 13.9835 6.3507 14.2735 6.39148 14.5589C5.3425 14.5114 4.40906 14.5 3.6682 14.5272C3.12219 14.5476 2.69398 14.5793 2.32469 14.6133C2.32242 14.5748 2.32016 14.5385 2.32016 14.5C2.32016 7.76886 7.76898 2.32003 14.5002 2.32003ZM8.34898 7.61706C9.52031 7.72581 10.4016 8.24917 10.8072 8.61167L11.0791 8.85183L11.4144 8.71363C12.332 8.33753 13.356 8.12003 14.5002 8.12003C15.6443 8.12003 16.6684 8.33753 17.5157 8.7091L17.8555 8.85863L18.1342 8.61167C18.5398 8.24917 19.4234 7.72581 20.5947 7.61706C20.7488 7.87308 20.8847 8.24011 20.853 8.79746C20.8122 9.46128 20.6355 10.184 20.5018 10.6145L20.4134 10.8954L20.5879 11.131C21.1611 11.9127 21.4534 12.76 21.4035 13.6572V13.6889C21.4035 15.1344 20.8802 16.2944 19.7723 17.1531C18.6621 18.0095 16.9085 18.56 14.4435 18.56C11.9762 18.56 10.2227 18.0095 9.1125 17.1531C8.00234 16.2944 7.48352 15.1344 7.48352 13.6889C7.48352 12.8393 7.78938 11.9036 8.35578 11.131L8.5257 10.9L8.44414 10.6258C8.31047 10.1682 8.14508 9.4273 8.11336 8.75894C8.08391 8.20386 8.21758 7.85042 8.35125 7.61706H8.34898ZM5.15445 15.0914C5.56227 15.0982 6.03352 15.1208 6.50477 15.1435C6.54781 15.3247 6.59992 15.5014 6.66336 15.6759C4.74438 15.7167 3.30797 15.9093 2.42438 16.0746C2.38586 15.7846 2.35641 15.4924 2.34055 15.1956C2.99531 15.1344 3.91516 15.0778 5.15445 15.0936V15.0914ZM23.8459 15.1027C25.0829 15.0868 26.005 15.1435 26.6575 15.2046C26.6416 15.4969 26.6122 15.7846 26.5759 16.0701C25.6606 15.9025 24.1857 15.7099 22.2169 15.6782C22.278 15.5082 22.3302 15.3338 22.3732 15.1571C22.8943 15.1299 23.3995 15.1072 23.8459 15.1027ZM6.91031 16.2514C7.25469 16.9446 7.75086 17.5632 8.40336 18.0707C9.29602 18.7594 10.4583 19.2443 11.8766 19.5025C11.6908 19.6928 11.5231 19.9013 11.3713 20.121L11.3373 20.0916C11.3396 20.0871 11.0496 20.2343 10.6123 20.2728C10.1773 20.3114 9.64039 20.3 9.16461 20.3C8.4532 20.3 8.14055 19.9647 7.63984 19.353C7.36344 18.9792 7.02586 18.6778 6.69734 18.449C6.36203 18.2134 6.07656 18.048 5.72086 17.9891L5.67328 17.98H5.6257C5.35609 17.98 5.09328 18.0004 4.84859 18.2791C4.72625 18.4196 4.64242 18.6778 4.6968 18.8976C4.75117 19.1151 4.88938 19.251 5.01398 19.3326C5.80695 19.8605 5.94742 20.9072 6.44359 21.8384C6.90805 22.7628 7.90945 23.2 8.93352 23.2H10.4402V25.9868C6.36203 24.5458 3.28531 20.9978 2.51273 16.6478C3.40086 16.4802 4.88711 16.2785 6.91031 16.2514ZM21.9722 16.2559C24.0384 16.274 25.5677 16.4734 26.4876 16.6433C25.7173 20.9978 22.6405 24.5458 18.5602 25.9845V22.9667C18.5602 22.0491 18.2588 21.0364 17.7332 20.1913C17.5746 19.933 17.3866 19.6906 17.1781 19.4731C18.5194 19.208 19.6227 18.7322 20.4814 18.0707C21.1339 17.5654 21.6278 16.9469 21.9722 16.2559ZM13.7457 19.7767H15.3702C15.8414 19.7767 16.3444 20.1528 16.7477 20.803C17.1509 21.451 17.4002 22.321 17.4002 22.9689V26.3311C16.4712 26.5577 15.4993 26.68 14.5002 26.68C13.501 26.68 12.5291 26.5577 11.6002 26.3311V22.9689C11.6002 22.3346 11.872 21.4668 12.3002 20.8166C12.7307 20.1641 13.2745 19.7789 13.7457 19.7789V19.7767ZM7.13914 20.4632C7.64211 20.9843 8.2493 21.46 9.16461 21.46C9.61547 21.46 10.1796 21.4759 10.7166 21.4283C10.7188 21.4283 10.7211 21.4283 10.7234 21.426C10.6509 21.63 10.5987 21.8339 10.5557 22.04H8.93352C8.21758 22.04 7.71234 21.7818 7.47898 21.315L7.47445 21.3082L7.47219 21.3014C7.37477 21.1247 7.25016 20.7713 7.13914 20.4632Z" fill="white"/>
</svg>
