<svg width="32" height="32" viewBox="0 0 32 32" fill="none" xmlns="http://www.w3.org/2000/svg">
<path d="M3.52014 4.47998C1.94014 4.47998 0.647637 5.76998 0.640137 7.34998C0.640137 7.34998 0.640137 7.35248 0.640137 7.35498C0.640137 7.35748 0.640137 7.35748 0.640137 7.35998V24.64C0.640137 26.2225 1.93764 27.52 3.52014 27.52H28.4801C30.0626 27.52 31.3601 26.2225 31.3601 24.64V7.35998C31.3601 7.35748 31.3601 7.35748 31.3601 7.35498C31.3601 7.35248 31.3601 7.34998 31.3601 7.34998C31.3526 5.76998 30.0601 4.47998 28.4801 4.47998H3.52014ZM5.18514 5.75998H26.8176L16.0001 13.3L5.18514 5.75998ZM3.05514 5.83498L16.0001 14.86L28.9476 5.83498C29.6026 6.03248 30.0751 6.62748 30.0801 7.35248C30.0776 7.48748 29.9401 7.75748 29.7401 7.97498C29.5376 8.19498 29.3401 8.33248 29.3401 8.33248L29.3376 8.33748L16.0001 17.7775L2.66264 8.33748L2.66014 8.33248C2.66014 8.33248 2.46264 8.19498 2.26014 7.97498C2.06014 7.75748 1.92264 7.48748 1.92014 7.35248C1.92514 6.62748 2.39764 6.03248 3.05514 5.83498ZM1.92014 9.37748L1.92514 9.38248L1.93014 9.38498V9.38748L3.84014 10.7375V26.24H3.52014C2.63014 26.24 1.92014 25.53 1.92014 24.64V9.37748ZM30.0801 9.37748V24.64C30.0801 25.53 29.3701 26.24 28.4801 26.24H28.1601V10.7375L30.0701 9.38748V9.38498L30.0801 9.37748ZM5.12014 11.6425L16.0001 19.3425L26.8801 11.6425V26.24H5.12014V11.6425Z" fill="white"/>
</svg>
