<svg width="34" height="30" viewBox="0 0 34 30" fill="none" xmlns="http://www.w3.org/2000/svg">
<path d="M30.1749 3.59301C29.8455 3.60473 29.5214 3.68676 29.2319 3.78988C28.945 3.89067 27.2875 4.5141 24.8411 5.43754C22.3947 6.36098 19.2152 7.56332 16.0622 8.75395C9.75626 11.1375 3.56189 13.4836 3.56189 13.4836L3.60704 13.4672C3.60704 13.4672 3.23251 13.5774 2.85532 13.8118C2.66407 13.9266 2.45954 14.0766 2.29485 14.2969C2.12751 14.5172 2.00532 14.8266 2.05048 15.1571C2.21251 16.3102 3.56985 16.6383 3.56985 16.6383L3.57517 16.6407L9.6261 18.4688C9.78282 18.9235 11.4642 23.8758 11.8334 24.9258C12.038 25.5047 12.2292 25.8399 12.4284 26.0672C12.5294 26.1821 12.633 26.2688 12.7472 26.3344C12.795 26.3602 12.8428 26.3789 12.8906 26.3977C12.8906 26.3977 12.8933 26.3954 12.8933 26.3977C12.8986 26.3977 12.9039 26.4 12.9092 26.4024L12.8933 26.3977C12.9066 26.4024 12.9172 26.4094 12.9278 26.4118C12.9491 26.4188 12.9624 26.4188 12.9889 26.4235C13.6849 26.6368 14.2559 26.2407 14.2559 26.2407L14.2799 26.2243L17.9986 23.1821L24.0336 27.3329L24.1106 27.3633C25.1678 27.7782 26.1214 27.5461 26.65 27.1664C27.1813 26.7868 27.3884 26.2969 27.3884 26.2969L27.4097 26.2454L31.8456 5.85238C31.9599 5.39535 31.9758 5.0016 31.8669 4.64535C31.7606 4.28676 31.5003 3.97738 31.1736 3.80629C30.8495 3.6352 30.5069 3.57895 30.1749 3.59301ZM30.212 4.81176C30.3475 4.80707 30.4458 4.81879 30.4777 4.83754C30.5095 4.85395 30.5228 4.8516 30.552 4.95238C30.5839 5.05082 30.5999 5.2641 30.5175 5.59457L30.5149 5.6016L26.1055 25.8774C26.0949 25.8985 26.0019 26.086 25.7947 26.236C25.5795 26.3907 25.3405 26.5102 24.7109 26.2758L18.1102 21.736L17.9242 21.6071L17.9216 21.6094L15.948 20.3039L27.0378 8.7891C27.2131 8.60863 27.2503 8.35551 27.1334 8.14223C27.0192 7.9266 26.7722 7.79301 26.5039 7.80004C26.3738 7.80238 26.2489 7.83754 26.1427 7.90082L10.0936 17.3414L4.03204 15.511C4.03204 15.511 3.42907 15.2133 3.39985 15.0094C3.3972 14.9977 3.39189 15.0071 3.42376 14.9672C3.45298 14.925 3.53267 14.8547 3.63095 14.7961C3.82751 14.6743 4.05329 14.6016 4.05329 14.6016L4.07454 14.5946L4.09845 14.5852C4.09845 14.5852 10.2955 12.2391 16.5988 9.85785C19.7517 8.66488 22.9313 7.46488 25.375 6.54145C27.8214 5.61801 29.5878 4.95473 29.7366 4.90317C29.9092 4.84223 30.0766 4.81645 30.212 4.81176ZM22.8569 11.2758L14.4445 20.0063L14.4419 20.011C14.4286 20.025 14.4153 20.0391 14.4047 20.0555C14.3914 20.0696 14.3781 20.0883 14.3675 20.1047C14.3197 20.175 14.2905 20.2547 14.2772 20.3368V20.3391L13.1828 24.6868C13.1642 24.6399 13.1509 24.6235 13.1324 24.5672C12.7844 23.5805 11.1986 18.9094 10.9781 18.2625L22.8569 11.2758ZM15.3955 21.4383L16.9069 22.4391L14.6863 24.2555L15.3955 21.4383Z" fill="white"/>
</svg>
