<svg width="32" height="32" viewBox="0 0 32 32" fill="none" xmlns="http://www.w3.org/2000/svg">
<path d="M15.9998 1.28003C7.87729 1.28003 1.27979 7.87753 1.27979 16C1.27979 24.1225 7.87729 30.72 15.9998 30.72C24.1223 30.72 30.7198 24.1225 30.7198 16C30.7198 7.87753 24.1223 1.28003 15.9998 1.28003ZM15.9998 2.56003C23.4298 2.56003 29.4398 8.57003 29.4398 16C29.4398 23.43 23.4298 29.44 15.9998 29.44C8.56978 29.44 2.55979 23.43 2.55979 16C2.55979 8.57003 8.56978 2.56003 15.9998 2.56003ZM9.59978 11.52H7.01729C7.01729 11.52 6.86979 11.5125 6.69229 11.535C6.51479 11.56 6.24979 11.57 5.97979 11.875L5.97729 11.8775C5.73729 12.155 5.74479 12.475 5.77479 12.65C5.80479 12.825 5.87229 12.9575 5.87229 12.9575C5.89729 13.02 7.77228 17.615 10.1373 20.0825C11.8048 21.825 13.5873 22.4 15.1748 22.4H15.9998C16.2698 22.4 16.5123 22.3875 16.7798 22.2475C17.0498 22.11 17.2798 21.7275 17.2798 21.4275C17.2798 21.1075 17.2873 20.7975 17.3273 20.6225C17.3673 20.4625 17.3523 20.5025 17.3673 20.5C17.3823 20.505 17.4098 20.51 17.4648 20.535C17.5773 20.5875 17.7548 20.7025 17.9498 20.8525C18.3398 21.1575 18.8023 21.5975 19.3223 21.9375C20.0648 22.43 20.8723 22.4 20.8723 22.4H23.5323L23.5623 22.3975C23.5623 22.3975 23.9698 22.3875 24.3898 22.13C24.5973 22.0025 24.8473 21.7675 24.9323 21.4125C25.0148 21.06 24.9073 20.69 24.7023 20.3625C24.6273 20.245 24.2623 19.715 22.8073 18.4225C22.4323 18.09 22.1748 17.855 22.0748 17.7275C22.0373 17.685 22.0348 17.6875 22.0273 17.685C22.0348 17.665 22.1198 17.4875 22.3448 17.195C22.5798 16.89 22.9348 16.465 23.3948 15.8825C23.9773 15.1375 24.3873 14.4225 24.6448 13.82C24.7748 13.5175 24.8648 13.245 24.9198 12.995C24.9748 12.7475 25.0173 12.5425 24.9373 12.2475C24.8773 12.0275 24.7123 11.8325 24.5523 11.7275C24.3923 11.625 24.2423 11.585 24.1073 11.56C23.8373 11.5125 23.5998 11.52 23.3798 11.52C22.9173 11.52 20.8573 11.535 20.6873 11.535C20.4873 11.535 20.1698 11.62 20.0223 11.7025C19.6573 11.9125 19.5423 12.2 19.5423 12.2L19.5073 12.26L19.4873 12.33C19.4873 12.33 19.0173 13.8475 18.5373 14.6275H18.5348C17.9673 15.55 17.5448 15.915 17.3598 16.0175C17.3398 16.03 17.3498 16.025 17.3373 16.03C17.3223 15.99 17.3023 15.93 17.2923 15.8225C17.2648 15.58 17.2798 15.2375 17.2798 14.905C17.2798 13.9875 17.3498 13.415 17.2723 12.8725C17.2348 12.6025 17.1373 12.3 16.9148 12.0675C16.6923 11.835 16.4073 11.72 16.1198 11.655C15.8198 11.5875 15.4998 11.5275 14.7273 11.52C13.7423 11.51 13.0998 11.5425 12.5323 11.795L12.5248 11.7975L12.5198 11.8C12.2948 11.9075 12.1173 12.0275 11.9623 12.19C11.8823 12.27 11.7898 12.33 11.7273 12.5875C11.6948 12.7175 11.6898 12.96 11.8373 13.1575C11.9823 13.355 12.1848 13.415 12.3073 13.43C12.2848 13.4275 12.3998 13.4525 12.4923 13.4975C12.5823 13.5425 12.6598 13.6075 12.6798 13.6325C12.6723 13.6225 12.7573 13.8375 12.7823 14.035C12.8048 14.2325 12.7998 14.39 12.7998 14.39V14.4275L12.8023 14.4675C12.8023 14.4675 12.8423 14.9025 12.8223 15.3525C12.8098 15.575 12.7823 15.8025 12.7448 15.94C12.7423 15.9475 12.7423 15.945 12.7398 15.9525C12.5798 15.84 12.2098 15.45 11.7023 14.6075C11.2298 13.83 10.7898 12.4325 10.7898 12.4325L10.7798 12.4L10.7698 12.3725C10.7698 12.3725 10.6873 12.06 10.3248 11.805C9.98229 11.565 9.65978 11.5325 9.65978 11.5325L9.59978 11.52ZM9.45228 12.8C9.48979 12.8125 9.56478 12.84 9.57978 12.8475L9.56478 12.8025C9.56478 12.8025 9.58478 12.8475 9.58478 12.85H9.58728V12.8525C9.55728 12.8275 9.58478 12.85 9.58728 12.855C9.60478 12.9175 9.99479 14.2625 10.6073 15.2725C11.1623 16.19 11.5723 16.705 12.0223 17.0125C12.4698 17.3175 13.0723 17.2875 13.3773 17.1275C13.7873 16.915 13.8998 16.565 13.9798 16.275C14.0598 15.985 14.0873 15.69 14.0998 15.41C14.1248 14.8775 14.0823 14.4425 14.0798 14.4C14.0798 14.375 14.0848 14.1675 14.0523 13.8875C14.0198 13.6025 13.9598 13.2525 13.7098 12.9C13.9898 12.8575 14.1473 12.795 14.7148 12.8C15.4373 12.8075 15.5473 12.8375 15.8323 12.9025C15.9848 12.9375 16.0023 12.9675 15.9873 12.9525C15.9748 12.9375 15.9873 12.9275 16.0048 13.0525C16.0398 13.3 15.9998 13.9375 15.9998 14.905C15.9998 15.1775 15.9723 15.5625 16.0198 15.965C16.0648 16.3675 16.1898 16.8825 16.6748 17.185C16.9523 17.355 17.4823 17.415 17.9823 17.1375C18.4823 16.8575 18.9948 16.325 19.6248 15.3C20.2473 14.29 20.6198 12.9625 20.6623 12.8225C20.6623 12.8225 20.6673 12.8175 20.6723 12.815C20.6848 12.815 20.6698 12.8175 20.6873 12.8175C20.9248 12.8175 22.9473 12.8 23.3798 12.8C23.4998 12.8 23.5523 12.8075 23.6398 12.81C23.6048 12.9475 23.5548 13.11 23.4673 13.3175C23.2598 13.8025 22.9023 14.435 22.3873 15.0925C21.9423 15.66 21.5948 16.07 21.3323 16.415C21.0673 16.7575 20.8598 17.0275 20.7723 17.42C20.6848 17.8125 20.8523 18.2525 21.0773 18.535C21.3023 18.815 21.5823 19.05 21.9573 19.3825C23.3648 20.6325 23.5973 21.01 23.6198 21.045V21.0475C23.6423 21.085 23.6273 21.045 23.6348 21.065C23.5573 21.09 23.4623 21.1175 23.4523 21.12H20.8598C20.8598 21.12 20.3823 21.105 20.0298 20.87H20.0273C19.6523 20.6225 19.1998 20.2025 18.7348 19.8425C18.5023 19.6625 18.2648 19.4925 17.9923 19.37C17.7173 19.245 17.3673 19.1575 17.0023 19.2675C16.4723 19.425 16.1773 19.93 16.0848 20.33C16.0148 20.6175 16.0248 20.8675 16.0248 21.12C16.0048 21.12 16.0223 21.12 15.9998 21.12H15.1773C13.8748 21.12 12.5223 20.7225 11.0623 19.1975C9.16478 17.215 7.47228 13.3825 7.21729 12.8025L9.45228 12.8ZM20.6148 12.805C20.6048 12.8075 20.6373 12.81 20.6648 12.8125C20.6623 12.815 20.6648 12.81 20.6598 12.8125C20.6598 12.8025 20.6323 12.8025 20.6148 12.805Z" fill="white"/>
</svg>
